<?xml version="1.0" encoding="UTF-8" standalone="no"?>
<!DOCTYPE svg PUBLIC "-//W3C//DTD SVG 1.1//EN" "http://www.w3.org/Graphics/SVG/1.1/DTD/svg11.dtd">
<svg width="170px" height="68px" version="1.1" xmlns="http://www.w3.org/2000/svg" xmlns:xlink="http://www.w3.org/1999/xlink" xml:space="preserve" style="fill-rule:evenodd;clip-rule:evenodd;stroke-linejoin:round;stroke-miterlimit:1.41421;">
    <path d="M96.792,31.115c1.638,0 3.021,-0.07 4.159,-0.218c1.14,-0.149 2.096,-0.366 2.877,-0.659c1.443,-0.544 2.439,-1.284 2.991,-2.235c0.555,-0.943 0.833,-2.026 0.833,-3.25c0,-1.054 -0.215,-1.981 -0.659,-2.791c-0.435,-0.805 -1.181,-1.442 -2.226,-1.911c-0.689,-0.314 -1.543,-0.541 -2.57,-0.684c-1.039,-0.148 -2.31,-0.222 -3.829,-0.222l-5.106,0l0,11.97l3.53,0Zm18.212,-6.219c0,2.73 -0.752,5.037 -2.267,6.936c-1.508,1.9 -3.838,3.304 -6.995,4.217l0,0.117l11.638,16.098l-8.587,0l-10.628,-15.163l-4.903,0l0,15.163l-7.172,0l0,-39.1l11.886,0c1.966,0 3.8,0.111 5.493,0.339c1.693,0.221 3.143,0.556 4.354,1.004c2.296,0.878 4.067,2.173 5.316,3.897c1.247,1.725 1.865,3.888 1.865,6.492Zm8.517,27.368l0,-39.1l7.173,0l0,39.1l-7.173,0Zm22.998,-16.992l0,11.013l4.679,0l3.217,-0.101c0.898,-0.071 1.663,-0.183 2.309,-0.338c0.993,-0.216 1.826,-0.507 2.488,-0.862c0.664,-0.361 1.199,-0.769 1.608,-1.227c0.41,-0.458 0.704,-0.967 0.878,-1.517c0.17,-0.556 0.264,-1.146 0.264,-1.769c0,-1.09 -0.307,-2.047 -0.911,-2.862c-0.602,-0.816 -1.546,-1.432 -2.833,-1.84c-0.564,-0.173 -1.229,-0.301 -1.987,-0.38c-0.76,-0.075 -1.735,-0.117 -2.929,-0.117l-6.783,0Zm6.459,-5.981c1.951,0 3.402,-0.198 4.355,-0.585c1.072,-0.453 1.837,-1.075 2.297,-1.865c0.457,-0.788 0.685,-1.683 0.685,-2.679c0,-1.036 -0.263,-1.959 -0.786,-2.772c-0.53,-0.811 -1.425,-1.412 -2.686,-1.803c-0.534,-0.155 -1.149,-0.268 -1.846,-0.338l-2.599,-0.103l-5.879,0l0,10.145l6.459,0Zm14.694,-5.714c0,1.698 -0.382,3.257 -1.142,4.668c-0.76,1.412 -2.017,2.591 -3.767,3.527l0,0.116c0.971,0.329 1.864,0.756 2.675,1.27c0.804,0.515 1.5,1.129 2.078,1.838c0.571,0.711 1.028,1.512 1.357,2.412c0.324,0.894 0.488,1.896 0.488,3.006c0,0.952 -0.153,1.976 -0.455,3.064c-0.3,1.092 -0.832,2.145 -1.595,3.172c-0.757,1.019 -1.774,1.959 -3.038,2.816c-1.268,0.854 -2.869,1.537 -4.798,2.041l-1.596,0.322l-1.912,0.247l-2.343,0.149l-2.897,0.039l-11.379,0l0,-39.1l13.589,0c2.905,0 5.242,0.291 7.017,0.875c1.328,0.432 2.475,0.994 3.451,1.683c0.972,0.695 1.777,1.461 2.409,2.311c0.636,0.853 1.097,1.748 1.404,2.694c0.3,0.943 0.454,1.899 0.454,2.85Zm-81.625,41.711l0,-7.02l0.971,0l0,1.107c0.36,-0.857 0.978,-1.284 1.842,-1.284l0.262,0.019l-0.003,0.992l-0.418,-0.04c-0.521,0 -0.929,0.173 -1.217,0.514c-0.287,0.351 -0.43,0.811 -0.43,1.38l0,4.332l-1.007,0Zm4.218,-7.02l1.005,0l0,5.455c0,0.288 0.067,0.512 0.199,0.667c0.13,0.15 0.374,0.228 0.718,0.228c0.38,0 0.716,-0.144 1.005,-0.431c0.293,-0.29 0.441,-0.787 0.441,-1.483l0,-4.436l1.004,0l0,7.02l-1.004,0l0,-1.006c-0.33,0.791 -0.918,1.186 -1.764,1.186c-1.072,0 -1.604,-0.608 -1.604,-1.826l0,-5.374Zm6.343,7.02l0,-7.02l0.973,0l0,0.818c0.452,-0.664 1.048,-0.995 1.79,-0.995c0.548,0 0.97,0.148 1.261,0.451c0.295,0.303 0.447,0.757 0.447,1.377l0,5.369l-1.01,0l0,-5.079c0,-0.845 -0.337,-1.269 -1.02,-1.269c-0.412,0 -0.762,0.144 -1.029,0.427c-0.27,0.282 -0.403,0.645 -0.403,1.087l0,4.834l-1.009,0Zm6.395,0l0,-7.02l0.973,0l0,0.818c0.451,-0.664 1.045,-0.995 1.79,-0.995c0.545,0 0.966,0.148 1.258,0.451c0.299,0.303 0.449,0.757 0.449,1.377l0,5.369l-1.01,0l0,-5.079c0,-0.845 -0.337,-1.269 -1.024,-1.269c-0.413,0 -0.757,0.144 -1.028,0.427c-0.269,0.282 -0.401,0.645 -0.401,1.087l0,4.834l-1.007,0Zm6.38,-7.021l1.008,0l0,7.021l-1.008,0l0,-7.021Zm0,-2.452l1.008,0l0,1.27l-1.008,0l0,-1.27Zm2.891,9.473l0,-7.021l0.971,0l0,0.819c0.449,-0.664 1.046,-0.995 1.788,-0.995c0.55,0 0.972,0.148 1.266,0.451c0.292,0.303 0.446,0.757 0.446,1.377l0,5.369l-1.012,0l0,-5.081c0,-0.843 -0.337,-1.267 -1.023,-1.267c-0.414,0 -0.757,0.144 -1.029,0.427c-0.267,0.282 -0.397,0.645 -0.397,1.087l0,4.834l-1.01,0Zm7.21,-3.533c0,1.907 0.433,2.863 1.298,2.863c0.996,0 1.489,-0.895 1.489,-2.684c0,-1.068 -0.109,-1.836 -0.34,-2.298c-0.218,-0.465 -0.579,-0.696 -1.062,-0.696c-0.925,0 -1.385,0.939 -1.385,2.815Zm-0.732,4.239l0.947,0c0.089,0.552 0.473,0.828 1.149,0.828c0.449,0 0.794,-0.162 1.033,-0.478c0.24,-0.315 0.355,-0.806 0.355,-1.465l0,-0.477c-0.386,0.713 -0.894,1.065 -1.525,1.065c-1.507,0 -2.262,-1.238 -2.262,-3.719c0,-1.114 0.189,-2.003 0.561,-2.664c0.376,-0.662 0.926,-0.993 1.65,-0.993c0.749,0 1.289,0.339 1.611,1.015l0,-0.839l0.972,0l0,6.249c0,2.101 -0.82,3.156 -2.459,3.156c-0.62,0 -1.098,-0.147 -1.439,-0.444c-0.335,-0.301 -0.536,-0.712 -0.593,-1.234Zm8.737,-6.873l0,-0.854l0.971,0l0,-1.876l1.004,0l0,1.876l1.188,0l0,0.854l-1.188,0l0,4.776l0.077,0.431c0.06,0.074 0.206,0.108 0.439,0.108l0.649,0l0,0.852l-1.121,0c-0.41,0 -0.69,-0.083 -0.833,-0.246c-0.142,-0.169 -0.215,-0.463 -0.215,-0.883l0,-5.038l-0.971,0Zm5.135,2.727c0,0.957 0.117,1.663 0.346,2.106c0.235,0.444 0.612,0.664 1.119,0.664c0.536,0 0.914,-0.233 1.129,-0.696c0.221,-0.462 0.33,-1.155 0.33,-2.074c0,-1.035 -0.117,-1.779 -0.343,-2.232c-0.223,-0.451 -0.599,-0.676 -1.122,-0.676c-0.498,0 -0.865,0.221 -1.105,0.664c-0.237,0.443 -0.354,1.192 -0.354,2.244Zm-1.03,-0.327c0,-1.112 0.211,-1.966 0.63,-2.548c0.423,-0.589 1.054,-0.883 1.884,-0.883c0.802,0 1.412,0.296 1.832,0.897c0.427,0.588 0.637,1.426 0.637,2.501c0,1.331 -0.189,2.323 -0.578,2.986c-0.376,0.664 -0.999,0.993 -1.873,0.993c-0.897,0 -1.546,-0.303 -1.937,-0.914c-0.398,-0.609 -0.595,-1.625 -0.595,-3.032Zm7.487,0.234c0,1.907 0.433,2.862 1.297,2.862c0.994,0 1.489,-0.894 1.489,-2.683c0,-1.068 -0.111,-1.836 -0.34,-2.299c-0.22,-0.464 -0.579,-0.695 -1.064,-0.695c-0.923,0 -1.382,0.939 -1.382,2.815Zm-0.736,4.239l0.951,0c0.092,0.552 0.473,0.828 1.148,0.828c0.446,0 0.79,-0.162 1.032,-0.478c0.236,-0.315 0.356,-0.806 0.356,-1.465l0,-0.478c-0.387,0.713 -0.898,1.066 -1.524,1.066c-1.51,0 -2.259,-1.238 -2.259,-3.719c0,-1.116 0.182,-2.004 0.555,-2.666c0.373,-0.661 0.928,-0.992 1.652,-0.992c0.749,0 1.29,0.34 1.611,1.016l0,-0.839l0.973,0l0,6.249c0,2.101 -0.82,3.156 -2.459,3.156c-0.617,0 -1.097,-0.147 -1.442,-0.444c-0.335,-0.301 -0.536,-0.712 -0.594,-1.234Zm9.388,-4.97c0,-0.841 -0.109,-1.398 -0.322,-1.671c-0.211,-0.273 -0.48,-0.413 -0.815,-0.413c-0.466,0 -0.796,0.164 -0.983,0.485c-0.194,0.324 -0.295,0.855 -0.308,1.599l2.428,0Zm-2.428,0.826l0,0.524c0,0.874 0.117,1.466 0.352,1.774c0.236,0.314 0.55,0.469 0.939,0.469c0.372,0 0.661,-0.121 0.867,-0.365c0.207,-0.249 0.314,-0.574 0.332,-0.983l0.008,-0.341l0.915,0l0,0.243c0,0.648 -0.187,1.192 -0.557,1.635c-0.366,0.441 -0.901,0.661 -1.593,0.661c-1.526,0 -2.294,-1.23 -2.294,-3.688c0,-1.139 0.193,-2.038 0.587,-2.697c0.395,-0.661 0.955,-0.992 1.694,-0.992c0.794,0 1.363,0.258 1.697,0.772c0.342,0.515 0.516,1.511 0.516,2.988l-3.463,0Zm4.233,-2.729l0,-0.854l0.968,0l0,-1.876l1.011,0l0,1.876l1.181,0l0,0.854l-1.181,0l0,4.775l0.076,0.432c0.06,0.073 0.204,0.108 0.435,0.108l0.647,0l0,0.851l-1.118,0c-0.411,0 -0.685,-0.082 -0.833,-0.245c-0.146,-0.169 -0.218,-0.463 -0.218,-0.883l0,-5.038l-0.968,0Zm4.382,-3.33l1.004,0l0,3.294c0.454,-0.664 1.035,-0.995 1.759,-0.995c0.579,0 1.004,0.154 1.281,0.454c0.286,0.309 0.423,0.765 0.423,1.374l0,5.369l-1.003,0l0,-5.08c0,-0.844 -0.343,-1.267 -1.026,-1.267c-0.467,0 -0.824,0.15 -1.071,0.444c-0.238,0.296 -0.363,0.651 -0.363,1.07l0,4.833l-1.004,0l0,-9.496Zm9.474,5.233c0,-0.842 -0.109,-1.4 -0.321,-1.672c-0.21,-0.272 -0.486,-0.412 -0.822,-0.412c-0.468,0 -0.797,0.164 -0.987,0.485c-0.189,0.324 -0.29,0.855 -0.311,1.599l2.441,0Zm-2.433,0.826l0,0.524c0,0.874 0.117,1.465 0.35,1.774c0.238,0.314 0.55,0.469 0.934,0.469c0.384,0 0.672,-0.122 0.877,-0.365c0.204,-0.25 0.316,-0.574 0.327,-0.983l0.016,-0.341l0.909,0l0,0.241c0,0.65 -0.186,1.194 -0.557,1.637c-0.363,0.441 -0.898,0.661 -1.598,0.661c-1.525,0 -2.289,-1.23 -2.289,-3.688c0,-1.139 0.195,-2.039 0.587,-2.697c0.389,-0.661 0.955,-0.992 1.691,-0.992c0.797,0 1.365,0.258 1.703,0.772c0.339,0.515 0.51,1.511 0.51,2.988l-3.46,0Zm5.144,3.437l0,-7.02l0.97,0l0,1.106c0.361,-0.857 0.973,-1.283 1.845,-1.283l0.264,0.019l-0.003,0.992l-0.422,-0.039c-0.519,0 -0.929,0.172 -1.222,0.513c-0.286,0.351 -0.43,0.81 -0.43,1.38l0,4.332l-1.002,0Zm-129.128,-65.156l1.521,0.168c3.51,11.66 1.894,24.616 -5.242,35.258l-1.022,-0.453c-2.444,-0.994 -4.883,-1.779 -7.359,-2.381c5.292,-9.872 5.944,-21.583 1.975,-31.967c3.246,-0.698 6.649,-0.929 10.127,-0.625Zm30.894,36.819c-0.208,2.393 -0.661,4.707 -1.329,6.919c-4.665,-5.615 -10.797,-10.132 -18.144,-12.804c-1.96,-0.723 -3.921,-1.268 -5.883,-1.689c4.085,-8.492 5.392,-17.912 4.131,-26.95c13.558,5.417 22.566,19.229 21.225,34.524Zm-36.82,30.919c-9.544,-0.835 -17.828,-5.544 -23.434,-12.443c10.12,-1.657 19.739,-6.594 27.119,-14.655c8.333,5.224 14.349,13.071 17.389,21.995c-6.063,3.829 -13.382,5.776 -21.074,5.103Zm-30.92,-36.847c1.103,-12.63 8.995,-23.037 19.763,-27.958c6.333,12.565 4.166,28.299 -6.479,38.587c-3.05,2.96 -6.522,5.182 -10.223,6.719c-2.454,-5.24 -3.601,-11.174 -3.061,-17.348Zm42.686,1.911c9.283,3.399 16.382,10.05 20.552,18.208c-1.468,2.51 -3.246,4.808 -5.276,6.846c-4.733,-8.406 -11.722,-15.577 -20.642,-20.41c1.298,-1.687 2.47,-3.436 3.497,-5.245l1.869,0.601Zm-12.03,5.971c-6.516,7.907 -15.326,12.78 -24.694,14.496c-0.625,-0.898 -1.208,-1.825 -1.744,-2.78c4.848,-1.79 9.425,-4.594 13.38,-8.431c2.052,-1.986 3.86,-4.188 5.366,-6.51c1.719,0.451 3.439,1.027 5.127,1.719l2.746,1.233l-0.181,0.273" style="fill:#fff;fill-rule:nonzero;"/>
</svg>
